{"title":"Focus 2015 1080p BluRay DTS x264-CyTSuNee","uid":12148969,"size":10873219738,"categoryP":"video","categoryS":"hd___movies","magnet":"?xt=urn:btih:693b4a374dfe2176021c17b1d1e2cd17ef9dc252&amp;dn=Focus+2015+1080p+BluRay+DTS+x264-CyTSuNee&amp;tr=udp%3A%2F%2Ftracker.openbittorrent.com%3A80&amp;tr=udp%3A%2F%2Fopen.demonii.com%3A1337&amp;tr=udp%3A%2F%2Ftracker.coppersurfer.tk%3A6969&amp;tr=udp%3A%2F%2Fexodus.desync.com%3A6969","seeders":2,"leechers":5,"uploader":"ston1d","files":1,"time":1437554607,"description":"Format : Matroska\nFormat version : Version 2\nFile size : 10.1 GiB\nDuration : 1h 44mn\nOverall bit rate : 13.8 Mbps\nEncoded date : UTC 2015-07-19 23:41:36\nWriting application : mkvmerge v3.2.0 ('Beginnings') built on Feb 12 2010 16:46:17\nWriting library : libebml v0.7.9 + libmatroska v0.8.1\n\nVideo\nID : 1\nFormat : AVC\nFormat/Info : Advanced Video Codec\nFormat profile : &lt;a class=&quot;__cf_email__&quot; href=&quot;/cdn-cgi/l/email-protection&quot; data-cfemail=&quot;4b03222c230b077f657a&quot;&gt;[email&amp;#160;protected]&lt;/a&gt;&lt;script data-cfhash='f9e31' type=&quot;text/javascript&quot;&gt;\n/* &lt;![CDATA[ */!function(){try{var t=&quot;currentScript&quot;in document?document.currentScript:function(){for(var t=document.getElementsByTagName(&quot;script&quot;),e=t.length;e--;)if(t[e].getAttribute(&quot;data-cfhash&quot;))return t[e]}();if(t&amp;&amp;t.previousSibling){var e,r,n,i,c=t.previousSibling,a=c.getAttribute(&quot;data-cfemail&quot;);if(a){for(e=&quot;&quot;,r=parseInt(a.substr(0,2),16),n=2;a.length-n;n+=2)i=parseInt(a.substr(n,2),16)^r,e+=String.fromCharCode(i);e=document.createTextNode(e),c.parentNode.replaceChild(e,c)}t.parentNode.removeChild(t);}}catch(u){}}()/* ]]&gt; */&lt;/script&gt;\nFormat settings, CABAC : Yes\nFormat settings, ReFrames : 4 frames\nCodec ID : V_MPEG4/ISO/AVC\nDuration : 1h 44mn\nBit rate : 12.3 Mbps\nWidth : 1 920 pixels\nHeight : 1 080 pixels\nDisplay aspect ratio : 16:9\nFrame rate mode : Constant\nFrame rate : 23.976 fps\nColor space : YUV\nChroma subsampling : 4:2:0\nBit depth : 8 bits\nScan type : Progressive\nBits/(Pixel*Frame) : 0.248\nStream size : 8.82 GiB (87%)\nWriting library : x264 core 144 r2525 40bb568\nEncoding settings : cabac=1 / ref=4 / deblock=1:-2:-1 / analyse=0x3:0x113 / me=umh / subme=11 / psy=1 / psy_rd=1.00:0.00 / mixed_ref=1 / me_range=24 / chroma_me=1 / trellis=2 / 8x8dct=1 / cqm=0 / deadzone=21,11 / fast_pskip=1 / chroma_qp_offset=-2 / threads=12 / lookahead_threads=2 / sliced_threads=0 / nr=0 / decimate=1 / interlaced=0 / bluray_compat=0 / constrained_intra=0 / bframes=8 / b_pyramid=2 / b_adapt=2 / b_bias=0 / direct=3 / weightb=1 / open_gop=0 / weightp=2 / keyint=250 / keyint_min=23 / scenecut=40 / intra_refresh=0 / rc_lookahead=40 / rc=2pass / mbtree=0 / bitrate=12343 / ratetol=1.0 / qcomp=0.60 / qpmin=0 / qpmax=69 / qpstep=4 / cplxblur=20.0 / qblur=0.5 / vbv_maxrate=40000 / vbv_bufsize=40000 / nal_hrd=none / filler=0 / ip_ratio=1.40 / pb_ratio=1.30 / aq=3:0.50 / zones=144276,149870,q=31,deblock=1:2\nDefault : Yes\nForced : No\n\nAudio\nID : 2\nFormat : DTS\nFormat/Info : Digital Theater Systems\nMode : 16\nFormat settings, Endianness : Big\nCodec ID : A_DTS\nDuration : 1h 44mn\nBit rate mode : Constant\nBit rate : 1 509 Kbps\nChannel(s) : 6 channels\nChannel positions : Front: L C R, Side: L R, LFE\nSampling rate : 48.0 KHz\nBit depth : 24 bits\nCompression mode : Lossy\nStream size : 1.10 GiB (11%)\nLanguage : English\nDefault : Yes\nForced : No\n\nText\nID : 3\nFormat : UTF-8\nCodec ID : S_TEXT/UTF8\nCodec ID/Info : UTF-8 Plain Text\nLanguage : Dutch\nDefault : Yes\nForced : No\n\nMenu\n00:00:00.000 : en:00:00:00.000\n00:09:17.974 : en:00:09:17.974\n00:18:55.217 : en:00:18:55.217\n00:30:22.904 : en:00:30:22.904\n00:40:56.079 : en:00:40:56.079\n00:49:16.370 : en:00:49:16.370\n01:00:10.482 : en:01:00:10.482\n01:11:02.758 : en:01:11:02.758\n01:20:27.489 : en:01:20:27.489\n01:28:33.892 : en:01:28:33.892\n01:39:19.620 : en:01:39:19.620","torrent":{"xt":"urn:btih:693b4a374dfe2176021c17b1d1e2cd17ef9dc252","amp;dn":"Focus+2015+1080p+BluRay+DTS+x264-CyTSuNee","amp;tr":["udp%3A%2F%2Ftracker.openbittorrent.com%3A80","udp%3A%2F%2Fopen.demonii.com%3A1337","udp%3A%2F%2Ftracker.coppersurfer.tk%3A6969","udp%3A%2F%2Fexodus.desync.com%3A6969"],"infoHash":"693b4a374dfe2176021c17b1d1e2cd17ef9dc252","infoHashBuffer":{"type":"Buffer","data":[105,59,74,55,77,254,33,118,2,28,23,177,209,226,205,23,239,157,194,82]},"announce":[],"urlList":[]}}